<?xml version="1.0" standalone="no"?>
<!DOCTYPE svg PUBLIC "-//W3C//DTD SVG 20010904//EN"
 "http://www.w3.org/TR/2001/REC-SVG-20010904/DTD/svg10.dtd">
<svg version="1.0" xmlns="http://www.w3.org/2000/svg"
 width="299.000000pt" height="484.000000pt" viewBox="0 0 299.000000 484.000000"
 preserveAspectRatio="xMidYMid meet">

<g transform="translate(0.000000,484.000000) scale(0.100000,-0.100000)"
fill="#000000" stroke="none">
<path d="M1070 4587 c0 -3 15 -38 34 -79 50 -109 58 -138 44 -155 -9 -11 -9
-17 3 -24 10 -6 11 -9 1 -9 -7 0 -14 6 -16 13 -14 49 -49 157 -51 155 -4 -5
21 -142 34 -180 8 -25 19 -38 31 -38 19 0 30 -26 30 -74 0 -16 9 -59 20 -95
11 -36 29 -101 42 -144 13 -48 28 -81 37 -85 30 -11 41 -42 16 -42 -12 0 -13
-3 -3 -19 7 -11 15 -18 19 -15 4 2 6 -2 5 -9 0 -6 5 -43 13 -80 11 -55 11 -71
1 -80 -8 -7 -10 -8 -7 -1 10 18 -54 58 -88 56 -16 -2 -33 -6 -37 -10 -5 -5 0
-33 11 -64 13 -39 16 -59 9 -66 -8 -8 -6 -29 6 -72 10 -34 16 -64 14 -66 -2
-2 -14 3 -26 12 -14 10 -22 26 -22 45 0 18 -4 28 -10 24 -6 -4 -7 2 -1 17 5
13 7 37 4 52 -4 18 -1 31 8 37 10 6 10 9 2 9 -8 0 -13 13 -13 29 0 17 -4 33
-10 36 -20 13 -9 36 20 42 22 4 29 10 26 22 -27 95 -28 96 -99 151 -65 49
-208 129 -232 130 -5 0 6 -15 25 -33 20 -17 42 -41 50 -52 13 -17 10 -17 -25
4 -86 51 -175 93 -175 82 0 -9 155 -187 168 -193 11 -5 135 -149 162 -187 13
-19 19 -31 12 -27 -7 4 -12 2 -12 -6 1 -16 24 -48 36 -48 4 0 3 5 -4 12 -7 7
-12 17 -12 22 0 6 7 0 16 -12 9 -13 14 -26 11 -28 -3 -3 2 -26 10 -50 28 -82
-8 -70 -56 19 -19 34 -36 56 -39 48 -2 -7 0 -16 5 -20 12 -7 23 -60 16 -78 -3
-7 -11 -13 -19 -13 -18 0 -18 -14 1 -30 8 -7 38 -53 67 -104 28 -50 55 -93 60
-97 4 -3 18 -31 32 -63 18 -45 21 -67 16 -93 -5 -19 -11 -37 -14 -41 -4 -3
-32 13 -64 36 -160 117 -305 180 -433 189 -47 4 -83 1 -95 -5 -16 -9 -10 -12
34 -13 56 -2 57 -2 87 -13 105 -41 132 -53 144 -64 7 -7 20 -11 27 -8 8 3 11
0 7 -10 -4 -11 -13 -14 -32 -9 -66 16 -131 23 -191 18 -83 -6 -104 -13 -70
-23 l25 -8 -24 -1 c-17 -1 -22 -4 -15 -11 6 -6 26 -6 54 -1 31 6 37 9 20 11
-20 2 -17 4 13 10 20 4 54 4 75 0 21 -5 28 -8 15 -9 -39 -2 -25 -15 46 -44 67
-27 211 -119 211 -135 0 -5 -16 -14 -35 -21 -19 -7 -33 -16 -30 -20 2 -5 -9
-11 -25 -15 -45 -9 -40 -40 10 -60 22 -9 40 -18 40 -20 0 -2 -21 -3 -47 -2
-30 1 -79 -8 -128 -24 l-80 -27 94 -5 c66 -4 98 -10 105 -20 6 -8 18 -17 26
-21 8 -3 1 -6 -17 -6 -18 -1 -55 -10 -83 -21 -28 -11 -60 -18 -73 -16 -25 4
-67 -13 -67 -26 0 -5 8 -11 18 -15 9 -3 25 -13 34 -20 22 -19 75 -8 89 19 13
25 68 48 111 48 l33 -1 -33 -17 c-18 -10 -30 -21 -26 -25 4 -3 -1 -9 -10 -12
-9 -3 -24 -7 -33 -11 -12 -3 -14 -7 -6 -12 16 -10 11 -45 -9 -60 -37 -28 -103
-179 -69 -158 6 4 11 16 11 27 0 10 5 19 10 19 6 0 10 -6 10 -14 0 -8 4 -17 9
-20 5 -4 7 2 5 11 -2 10 2 25 9 34 18 24 87 61 103 55 7 -3 15 0 17 7 2 7 7 9
11 6 4 -4 -7 -20 -24 -37 -27 -28 -39 -52 -25 -52 4 0 19 7 36 16 16 8 39 12
49 9 12 -4 20 -2 20 6 0 8 4 9 13 1 10 -9 17 -6 30 8 9 11 24 20 32 20 13 0
11 -10 -12 -50 -30 -54 -42 -61 -50 -30 -4 15 -11 18 -37 13 -17 -3 -35 -10
-41 -15 -6 -6 1 -7 19 -2 28 7 29 6 21 -22 -12 -41 -9 -75 7 -85 10 -7 9 -9
-4 -9 -10 0 -18 -6 -18 -14 0 -7 -16 -24 -35 -37 -33 -23 -44 -39 -27 -39 5 0
17 7 28 15 43 32 45 14 5 -54 -29 -48 -29 -49 -8 -55 26 -6 37 2 18 14 -18 11
0 58 39 100 21 22 24 30 13 34 -23 9 -6 24 21 19 14 -3 28 -14 32 -25 6 -21
35 -21 42 1 3 8 0 11 -7 7 -6 -4 -11 -2 -11 4 0 7 7 10 15 7 8 -4 17 -2 20 3
9 15 45 12 61 -5 18 -18 11 -19 -17 -4 -15 7 -24 7 -34 -1 -12 -10 -9 -17 17
-41 34 -34 33 -38 -12 -44 -36 -4 -52 -15 -32 -22 6 -3 9 -10 6 -15 -4 -7 -2
-8 4 -4 6 4 21 2 32 -4 24 -13 22 -67 -4 -82 -9 -5 -16 -18 -16 -28 0 -10 -8
-24 -17 -30 -15 -9 -14 -10 7 -4 24 6 24 5 8 -12 -14 -14 -20 -15 -32 -5 -20
16 -36 6 -29 -18 3 -13 -2 -23 -16 -30 -16 -9 -20 -9 -15 2 6 15 -22 31 -37
21 -6 -3 -8 9 -6 30 3 27 -1 39 -20 55 -33 29 -38 26 -14 -8 25 -34 26 -49 6
-75 -20 -26 -19 -36 2 -36 12 0 2 -14 -30 -43 -26 -24 -47 -49 -47 -55 0 -15
-17 -16 -25 -1 -4 6 -13 8 -21 5 -7 -3 -16 0 -20 6 -4 7 -10 5 -16 -6 -13 -23
-4 -30 37 -30 29 0 35 -4 35 -22 0 -12 -7 -27 -15 -34 -23 -19 -18 -33 10 -26
14 4 25 2 25 -4 0 -5 5 -10 11 -10 7 0 8 7 4 17 -4 10 -11 30 -15 45 -7 22 -5
26 7 21 13 -5 15 -1 11 15 -4 15 4 32 31 59 20 21 39 37 44 35 4 -1 7 6 7 15
0 13 2 15 8 5 5 -7 16 -10 25 -6 25 9 39 -4 27 -27 -8 -14 -7 -19 2 -19 19 0
15 -52 -5 -64 -13 -8 -20 -6 -31 9 -15 19 -15 18 -16 -15 0 -25 6 -39 20 -48
11 -7 20 -18 19 -25 0 -9 -2 -9 -6 1 -8 21 -25 13 -18 -9 6 -19 4 -21 -23 -17
-17 2 -28 0 -25 -4 3 -5 -11 -6 -32 -2 -27 5 -36 3 -31 -4 4 -6 -1 -24 -11
-38 -13 -20 -14 -29 -5 -32 7 -2 9 -8 6 -13 -3 -6 -10 -6 -17 -1 -7 5 -27 12
-45 15 l-32 7 16 -25 c16 -25 16 -25 -17 -22 -29 2 -38 -3 -66 -41 -27 -34
-31 -46 -23 -62 15 -28 12 -34 -6 -15 -21 21 -40 5 -26 -21 5 -11 9 -30 7 -44
-1 -14 -3 -31 -4 -38 0 -7 -4 -11 -8 -9 -5 3 -9 -11 -10 -30 -1 -23 2 -33 10
-30 7 2 12 14 11 25 -1 31 23 35 45 6 11 -14 28 -27 38 -28 10 -2 31 -7 47
-11 22 -6 28 -5 24 6 -3 8 3 25 13 38 23 29 26 53 3 25 -8 -10 -13 -14 -10 -7
4 6 1 15 -5 18 -6 4 -15 17 -20 29 -8 17 -9 15 -4 -12 3 -23 1 -31 -7 -26 -8
5 -9 2 -5 -9 7 -19 -1 -47 -13 -47 -11 0 -55 40 -44 40 5 1 -5 7 -22 14 -26
11 -31 19 -29 41 2 15 5 27 7 28 2 1 13 8 25 15 13 6 33 12 46 12 17 0 28 10
39 33 21 45 46 44 54 -2 3 -20 8 -44 11 -53 3 -13 0 -16 -11 -12 -11 4 -16 1
-16 -10 0 -9 8 -16 20 -16 11 0 20 -5 20 -11 0 -6 9 -8 20 -4 11 3 20 2 20 -4
0 -5 8 -11 18 -13 12 -3 8 -7 -15 -18 -36 -16 -37 -18 -24 -39 7 -11 15 -9 42
12 46 35 89 51 103 37 7 -7 5 -10 -5 -10 -13 0 -23 -14 -47 -62 -2 -5 2 -8 7
-8 6 0 11 7 11 15 0 8 9 15 20 15 11 0 20 -5 20 -10 0 -6 12 -9 28 -8 17 2 26
-1 25 -9 -2 -7 3 -13 10 -13 6 0 1 -9 -13 -20 -29 -23 -44 -26 -37 -7 8 22 -7
37 -31 30 -45 -11 -25 -43 48 -77 47 -22 57 -32 27 -27 -4 1 -16 -3 -26 -9
-15 -8 -20 -5 -24 12 -4 12 -9 19 -13 15 -4 -4 -16 0 -26 10 -20 18 -35 12
-22 -9 10 -15 34 -79 34 -90 0 -5 -4 -8 -10 -8 -5 0 -10 8 -10 17 0 12 -3 14
-10 7 -6 -6 -11 -32 -12 -57 0 -45 -2 -47 -29 -47 -27 0 -29 -2 -23 -26 5 -19
4 -25 -5 -20 -6 4 -11 16 -11 26 0 25 -38 36 -57 17 -17 -17 -8 -41 10 -30 7
3 4 -3 -5 -14 -22 -24 -24 -47 -3 -39 8 3 22 9 30 12 11 4 15 0 15 -15 0 -12
7 -24 15 -27 10 -4 13 -14 8 -33 -6 -25 -5 -25 13 -10 39 33 44 32 44 -5 0
-25 -4 -36 -15 -36 -8 0 -15 8 -15 17 0 13 -3 14 -12 5 -7 -7 -20 -12 -30 -12
-12 0 -18 -7 -18 -21 0 -11 4 -18 9 -14 5 3 13 -4 16 -16 l7 -21 15 21 c18 26
21 26 58 -5 l30 -26 -27 6 c-14 3 -33 9 -42 12 -12 5 -15 2 -10 -10 3 -9 1
-16 -5 -16 -6 0 -11 -5 -11 -11 0 -8 4 -8 14 0 10 8 30 10 59 6 37 -6 48 -3
74 19 17 14 36 26 42 26 6 0 11 5 11 10 0 6 -7 10 -15 10 -8 0 -15 7 -15 15 0
8 7 15 15 15 8 0 15 6 15 13 0 8 3 7 10 -3 14 -22 23 -5 10 20 -16 30 -6 36
19 11 26 -26 27 -41 2 -48 -11 -3 -21 -14 -24 -24 -4 -16 -1 -19 14 -14 14 5
19 2 19 -14 0 -15 -4 -19 -17 -14 -12 5 -15 2 -10 -10 9 -23 -13 -34 -28 -13
-11 14 -14 15 -25 1 -7 -8 -21 -15 -32 -15 -10 0 -21 -6 -24 -14 -3 -8 -13
-12 -26 -8 -15 3 -19 1 -16 -9 3 -8 12 -13 21 -13 9 1 19 -7 22 -17 4 -12 16
-19 31 -19 14 0 24 -6 24 -15 0 -19 23 -30 92 -44 44 -10 59 -17 64 -34 4 -12
11 -25 17 -28 5 -4 1 -12 -10 -18 -17 -8 -20 -7 -19 6 0 10 -12 20 -34 28 -19
7 -34 17 -33 23 1 5 -7 8 -17 5 -21 -5 -28 -23 -10 -23 6 0 10 -7 10 -15 0 -8
-8 -15 -18 -15 -24 0 -52 31 -52 56 0 40 -12 65 -28 59 -8 -3 -19 0 -23 6 -4
7 -14 9 -25 4 -11 -5 -22 -7 -26 -7 -5 1 -8 -3 -8 -8 0 -6 9 -10 20 -10 11 0
20 -7 20 -15 0 -12 -4 -14 -16 -7 -20 11 -54 4 -54 -10 0 -6 -7 -7 -15 -4 -9
3 -18 -1 -21 -8 -8 -21 -40 -25 -70 -10 -33 18 -42 11 -16 -11 11 -10 31 -27
44 -39 72 -62 145 -88 318 -115 170 -27 445 -16 528 20 72 32 77 35 81 55 1
10 9 26 17 35 8 9 12 18 9 21 -3 3 11 19 32 36 21 17 49 51 61 76 13 24 32 48
42 51 23 7 26 34 8 55 -11 12 -10 12 5 1 14 -11 17 -11 17 2 0 8 6 18 13 20 9
4 8 8 -3 16 -11 8 -17 6 -22 -7 -5 -14 -7 -13 -7 6 -1 12 3 22 8 22 4 0 6 12
3 26 -3 19 -1 25 7 20 6 -4 11 -3 11 3 0 5 -4 12 -10 16 -5 3 -7 12 -3 20 3 8
0 15 -6 15 -6 0 -11 9 -11 21 0 11 4 17 10 14 11 -7 53 19 44 28 -3 3 0 15 6
27 8 15 8 26 2 32 -7 7 -4 20 7 39 16 29 15 30 -9 49 l-25 20 27 -9 c15 -6 30
-6 33 -1 3 4 0 10 -7 12 -7 3 -11 20 -10 46 2 25 -2 42 -8 42 -6 0 -8 5 -5 10
6 9 -8 14 -27 11 -5 0 -8 2 -9 7 0 4 -2 17 -3 29 -2 15 3 22 13 21 36 -3 50 3
56 23 5 13 1 27 -8 36 -13 13 -13 20 3 63 12 32 14 53 8 64 -8 15 -11 14 -27
-5 l-18 -22 -19 31 c-10 18 -24 32 -31 32 -7 0 -13 4 -13 9 0 13 34 24 38 12
5 -14 62 -14 62 0 0 5 -6 7 -12 3 -10 -6 -10 -4 0 8 9 12 10 18 2 23 -7 4 -10
16 -7 26 3 11 1 19 -5 19 -6 0 -7 7 -4 15 3 9 -1 18 -9 21 -8 4 -13 10 -10 15
3 4 12 6 20 2 19 -7 19 4 0 23 -14 15 -18 38 -16 94 0 25 0 25 -10 -2 -6 -16
-15 -28 -20 -28 -20 0 -49 21 -49 35 0 8 -6 15 -12 15 -9 0 -8 3 2 10 9 5 19
5 27 -2 9 -7 13 -7 13 1 0 6 7 11 15 11 8 0 15 4 15 9 0 5 3 16 6 25 5 13 -2
16 -35 16 -40 0 -43 3 -40 38 1 10 33 2 41 -11 4 -7 8 -7 8 -2 0 6 5 3 10 -5
8 -13 10 -12 10 3 0 9 -4 17 -10 17 -19 0 -10 30 14 45 14 9 29 30 35 47 10
27 9 29 -5 17 -9 -7 -20 -23 -25 -36 -8 -23 -39 -33 -39 -12 0 5 -4 8 -9 5 -5
-3 -11 3 -14 14 -7 26 -27 26 -27 0 0 -11 -5 -20 -11 -20 -5 0 -8 4 -5 9 7 11
-28 43 -37 34 -4 -3 -7 -1 -7 5 0 7 11 12 24 12 13 0 26 6 29 13 3 9 7 9 18 0
10 -8 20 -9 29 -3 12 8 10 10 -7 10 -18 0 -23 6 -23 25 0 17 -4 23 -14 19 -7
-3 -13 -12 -12 -21 2 -31 -22 -23 -38 12 -21 43 -14 60 17 44 21 -12 22 -11 4
8 -10 11 -15 27 -11 37 4 10 1 16 -9 16 -8 0 -20 6 -26 14 -6 8 -21 16 -32 19
-16 4 -19 2 -14 -16 5 -17 4 -19 -4 -7 -5 8 -13 12 -16 8 -8 -7 -45 22 -45 35
0 5 9 7 21 4 17 -5 20 -2 16 14 -3 10 -1 22 5 25 13 8 32 56 29 74 -2 8 -11
24 -22 36 -10 11 -19 25 -19 32 0 6 -7 15 -15 20 -14 7 -14 12 -2 40 13 31 32
36 20 6 -4 -10 3 -14 20 -14 14 0 29 -5 32 -10 4 -6 21 -9 38 -7 24 2 32 8 32
23 0 15 -10 20 -55 26 -30 4 -68 12 -85 18 -26 9 -24 9 22 6 29 -1 50 1 47 6
-11 18 -68 40 -95 36 -36 -5 -39 9 -4 18 14 3 25 11 25 18 0 6 17 12 37 13 20
1 40 8 44 15 6 9 39 14 106 16 115 3 147 -3 139 -23 -3 -9 1 -15 9 -15 8 0 15
8 15 17 0 14 3 13 16 -5 8 -12 21 -22 28 -22 7 0 30 -11 50 -25 28 -19 34 -21
27 -7 -5 9 -19 26 -32 37 -12 11 -19 14 -15 8 4 -7 2 -13 -3 -13 -6 0 -11 7
-11 15 0 8 -3 14 -7 13 -5 -1 -18 3 -29 10 -12 6 -24 8 -28 5 -3 -3 -14 1 -23
9 -33 29 -224 49 -277 28 -20 -7 -24 -6 -20 5 3 7 20 18 37 25 61 22 118 55
103 58 -9 2 -47 -13 -86 -32 -38 -20 -72 -36 -75 -36 -3 0 -5 8 -5 19 0 21 91
71 131 71 29 0 54 14 46 26 -3 5 18 7 45 5 34 -2 48 0 44 7 -4 7 8 13 31 17
56 10 62 13 24 14 -28 1 -32 3 -21 16 6 8 30 19 53 24 35 9 27 10 -54 7 -77
-3 -111 -10 -175 -35 -78 -31 -114 -38 -114 -23 0 11 66 91 94 113 13 11 44
31 68 44 47 27 43 31 -14 15 -34 -10 -108 -78 -108 -100 0 -6 -5 -10 -10 -10
-6 0 5 25 25 56 l36 55 -36 -28 c-19 -15 -35 -32 -35 -36 0 -5 -4 -5 -10 -2
-19 12 -10 35 16 45 22 9 24 13 14 25 -10 12 -10 15 0 15 7 0 10 7 6 15 -3 8
0 15 5 15 7 0 9 -9 6 -21 -4 -15 -2 -19 10 -15 8 3 17 6 20 6 3 0 1 6 -5 13
-9 10 -4 12 23 9 26 -3 43 3 77 29 24 19 45 35 48 37 2 2 -1 6 -7 10 -9 5 -6
12 8 21 12 7 18 8 14 2 -3 -6 -1 -11 4 -11 6 0 11 5 11 10 0 6 7 10 15 10 16
0 97 49 103 63 2 4 12 7 23 7 22 0 26 28 5 36 -34 13 -253 -78 -358 -150 -60
-40 -61 -39 -27 10 18 27 34 52 34 55 0 3 8 14 18 23 20 20 16 33 -5 20 -7 -5
-17 -9 -23 -9 -12 0 -105 -172 -97 -180 3 -3 0 -5 -6 -5 -21 0 -14 18 59 158
91 175 99 188 189 306 114 148 117 153 97 137 -11 -9 -17 -10 -17 -2 0 18 -22
13 -49 -11 l-26 -23 21 25 c22 25 28 60 12 60 -5 0 -6 5 -2 12 5 7 3 8 -7 3
-55 -34 -124 -110 -207 -227 l-67 -95 -1 105 c-2 123 -16 150 -33 63 -7 -34
-16 -61 -21 -61 -6 0 -6 -10 0 -26 10 -27 -4 -109 -21 -120 -13 -8 -11 84 2
109 9 15 9 22 1 25 -6 2 -8 11 -5 19 5 13 2 15 -12 10 -16 -7 -17 -3 -11 50 4
32 8 70 8 86 1 15 5 27 11 27 5 0 7 6 4 14 -3 8 -2 16 2 18 4 2 20 55 36 118
15 63 30 122 32 130 4 13 4 13 -6 0 -9 -13 -11 -13 -11 2 0 24 11 49 20 43 8
-5 23 55 15 63 -10 10 -32 -19 -50 -70 -14 -39 -21 -47 -23 -31 -2 12 4 36 13
53 9 17 13 34 10 39 -7 12 11 51 62 136 22 39 44 80 48 93 3 12 11 22 17 22 5
0 8 6 5 14 -6 16 28 76 43 76 5 0 10 8 10 18 -1 38 -240 -247 -240 -286 0 -5
-8 -16 -17 -23 -11 -10 -14 -10 -9 -1 12 21 -12 13 -34 -10 -12 -13 -31 -39
-43 -58 -11 -19 -24 -37 -27 -40 -4 -3 -19 -24 -34 -47 -14 -24 -28 -43 -30
-43 -2 0 -3 18 -2 40 2 30 -1 39 -12 37 -9 -1 -25 28 -47 90 -42 115 -164 355
-212 419 -36 47 -153 163 -153 151z m170 -472 c0 -8 -4 -15 -10 -15 -5 0 -10
7 -10 15 0 8 5 15 10 15 6 0 10 -7 10 -15z m444 -202 c-5 -193 -31 -410 -50
-417 -10 -4 -13 9 -11 61 1 40 -2 68 -9 70 -11 4 -4 74 15 133 6 19 14 77 17
130 7 111 9 120 27 120 11 0 13 -20 11 -97z m-403 -26 c-10 -9 -11 -8 -5 6 3
10 9 15 12 12 3 -3 0 -11 -7 -18z m676 -504 c3 -9 -21 -21 -38 -19 -4 1 -15
-6 -25 -15 -34 -29 -49 -33 -25 -6 14 15 31 27 38 27 8 0 16 7 20 15 6 17 24
16 30 -2z m-73 -100 c-9 -21 -21 -47 -27 -58 -6 -11 -25 -50 -43 -87 -32 -64
-54 -92 -54 -68 0 30 120 250 137 250 1 0 -5 -17 -13 -37z m-174 -13 c0 -5 -5
-10 -11 -10 -5 0 -7 5 -4 10 3 6 8 10 11 10 2 0 4 -4 4 -10z m-324 -122 c3
-11 12 -17 19 -14 9 3 11 -2 8 -15 -7 -25 -15 -24 -42 6 -18 22 -29 25 -61 22
-53 -5 -51 8 3 20 50 11 64 8 73 -19z m-366 -34 c0 -2 -7 -4 -15 -4 -8 0 -15
4 -15 10 0 5 7 7 15 4 8 -4 15 -8 15 -10z m843 -111 c-7 -2 -19 -2 -25 0 -7 3
-2 5 12 5 14 0 19 -2 13 -5z m-795 -50 c7 -7 9 -13 5 -13 -5 0 -22 15 -39 32
-23 26 -24 29 -4 13 13 -11 30 -26 38 -32z m472 -46 c-14 -6 -28 -16 -32 -22
-5 -6 -8 -3 -8 7 0 9 -8 19 -17 21 -10 3 5 5 32 5 45 1 48 0 25 -11z m-376
-167 c-3 -14 -11 -28 -17 -32 -17 -11 -37 -10 -37 2 0 6 5 10 12 10 6 0 8 3 5
7 -4 3 1 12 10 18 16 12 16 14 0 38 -25 39 -20 46 9 12 17 -22 23 -37 18 -55z
m823 34 c-3 -3 -12 -4 -19 -1 -8 3 -5 6 6 6 11 1 17 -2 13 -5z m-767 -8 c0 -3
-4 -8 -10 -11 -5 -3 -10 -1 -10 4 0 6 5 11 10 11 6 0 10 -2 10 -4z m-110 -36
c0 -5 -4 -10 -10 -10 -5 0 -10 5 -10 10 0 6 5 10 10 10 6 0 10 -4 10 -10z
m551 -62 c22 -6 39 -17 39 -24 0 -8 -6 -11 -15 -8 -8 4 -21 1 -29 -5 -10 -8
-15 -5 -24 13 -6 14 -21 26 -34 29 l-23 4 24 2 c13 0 41 -4 62 -11z m-811 -62
c0 -9 -30 -14 -35 -6 -4 6 3 10 14 10 12 0 21 -2 21 -4z m211 -12 c27 -9 52
-20 55 -25 9 -15 -30 -10 -54 7 -12 8 -31 13 -41 9 -12 -3 -21 0 -25 10 -7 19
3 19 65 -1z m-116 -94 c-3 -5 -16 -15 -28 -21 -19 -9 -19 -8 3 10 28 23 34 26
25 11z m143 -17 c-10 -2 -26 -2 -35 0 -10 3 -2 5 17 5 19 0 27 -2 18 -5z
m-206 -35 c-7 -7 -12 -8 -12 -2 0 14 12 26 19 19 2 -3 -1 -11 -7 -17z m924 8
c20 -20 18 -26 -10 -26 -19 0 -23 4 -19 20 6 24 10 25 29 6z m-263 -3 c-7 -2
-19 -2 -25 0 -7 3 -2 5 12 5 14 0 19 -2 13 -5z m257 -93 c-19 -13 -30 -13 -30
0 0 6 10 10 23 10 18 0 19 -2 7 -10z m-465 -110 c3 -5 1 -10 -4 -10 -6 0 -11
5 -11 10 0 6 2 10 4 10 3 0 8 -4 11 -10z m229 -25 c-6 -16 -24 -21 -24 -7 0
11 11 22 21 22 5 0 6 -7 3 -15z m-167 -24 c12 -11 23 -18 25 -15 3 2 4 -6 3
-19 -1 -12 -11 -26 -23 -32 -26 -11 -29 -25 -6 -25 9 0 14 -6 12 -12 -3 -7
-13 -13 -24 -13 -10 0 -23 -6 -28 -14 -6 -10 -10 -11 -16 -1 -6 9 -10 6 -15
-9 -8 -26 -25 -28 -18 -2 5 21 -12 37 -22 20 -8 -13 -35 34 -35 62 0 21 22 38
28 21 7 -21 82 -12 82 10 0 7 -16 9 -39 5 -54 -7 -59 3 -14 24 49 23 65 23 90
0z m414 -86 c1 -21 3 -24 6 -10 5 17 8 14 22 -15 9 -19 21 -35 28 -35 17 0 26
-12 18 -25 -5 -8 -13 -7 -30 4 -21 14 -68 19 -60 6 2 -3 0 -12 -5 -19 -6 -11
-13 -10 -35 8 l-28 21 25 0 c16 0 29 9 37 24 11 20 10 28 -4 49 -16 25 -16 26
4 24 16 -1 21 -8 22 -32z m-56 15 c3 -5 -3 -10 -14 -10 -12 0 -21 5 -21 10 0
6 6 10 14 10 8 0 18 -4 21 -10z m-237 -119 c17 10 23 10 36 0 23 -20 20 -29
-10 -25 -15 1 -38 -2 -52 -7 l-26 -10 33 -29 c36 -33 23 -41 -16 -11 -13 11
-31 17 -39 14 -24 -9 -15 13 11 27 14 8 25 22 25 34 0 16 3 17 9 8 7 -11 12
-12 29 -1z m113 -7 c17 -15 16 -17 -2 -35 -22 -22 -69 -36 -69 -20 0 6 9 11
20 11 11 0 20 2 20 4 0 2 3 12 6 20 5 12 2 15 -10 10 -12 -5 -15 -2 -10 10 8
20 23 20 45 0z m286 -40 c-1 -1 -15 0 -30 3 -19 4 -25 8 -16 13 10 7 53 -9 46
-16z m-613 -26 c-3 -5 -2 -14 3 -20 4 -7 9 -22 10 -33 2 -11 13 -33 24 -49
l21 -28 -21 7 c-12 3 -21 3 -20 -2 4 -22 -3 -31 -26 -37 -14 -4 -25 -11 -25
-16 0 -6 -4 -10 -10 -10 -5 0 -10 7 -10 15 0 8 -3 14 -7 14 -23 -4 -43 3 -43
14 0 7 -10 21 -22 31 -19 17 -19 19 -5 28 10 5 17 18 17 30 0 12 16 35 37 53
31 27 40 30 59 21 12 -6 20 -14 18 -18z m669 -18 c-3 -11 -7 -20 -9 -20 -2 0
-4 9 -4 20 0 11 4 20 9 20 5 0 7 -9 4 -20z m-40 -22 c4 -13 10 -17 18 -13 9 6
10 0 5 -21 -5 -21 -4 -25 3 -14 8 12 13 12 23 2 8 -8 9 -12 1 -12 -7 0 -14 -8
-18 -19 -3 -10 -13 -18 -23 -17 -11 1 -16 -5 -14 -16 2 -13 -4 -18 -21 -18
-20 0 -26 7 -35 40 l-10 39 29 -6 c27 -5 29 -3 29 25 0 17 -6 32 -15 36 -22 8
-18 25 4 19 11 -3 22 -14 24 -25z m-44 -15 c9 -19 9 -23 -2 -23 -9 0 -14 10
-14 25 0 29 0 29 16 -2z m-519 -3 c0 -5 -7 -10 -16 -10 -8 0 -12 5 -9 10 3 6
10 10 16 10 5 0 9 -4 9 -10z m410 -79 c0 -4 11 -6 25 -3 29 5 32 -5 8 -24 -15
-11 -16 -16 -5 -34 12 -20 11 -20 -7 -10 -16 8 -27 7 -48 -7 -26 -17 -27 -17
-20 0 7 20 -3 23 -21 5 -9 -9 -15 -9 -23 -1 -8 8 -3 13 20 18 20 4 31 13 31
24 0 18 18 41 32 41 4 0 8 -4 8 -9z m-90 -11 c0 -5 -8 -10 -17 -10 -15 0 -16
2 -3 10 19 12 20 12 20 0z m40 -4 c0 -3 -4 -8 -10 -11 -5 -3 -10 -1 -10 4 0 6
5 11 10 11 6 0 10 -2 10 -4z m240 -26 c7 -5 1 -9 -17 -12 -27 -4 -28 -2 -19
18 6 13 14 18 17 12 4 -6 12 -14 19 -18z m-750 -20 c0 -5 -5 -10 -11 -10 -5 0
-7 5 -4 10 3 6 8 10 11 10 2 0 4 -4 4 -10z m298 -31 c3 -12 2 -12 -6 0 -8 10
-12 6 -18 -20 -5 -19 -9 -38 -9 -44 0 -11 -66 -47 -73 -40 -3 3 0 5 6 5 7 0
12 5 12 10 0 6 -6 10 -12 9 -24 -3 -41 1 -35 8 4 3 2 12 -4 19 -7 9 -2 18 21
34 16 12 34 19 40 15 5 -3 15 3 21 14 14 21 50 15 57 -10z m-238 7 c0 -3 -4
-8 -10 -11 -5 -3 -10 -1 -10 4 0 6 5 11 10 11 6 0 10 -2 10 -4z m76 -44 c-8
-16 -12 -32 -9 -36 4 -3 -1 -6 -10 -6 -19 0 -23 15 -7 25 6 3 10 14 10 24 0
20 23 47 28 32 2 -5 -4 -23 -12 -39z m499 37 c11 -17 -1 -21 -15 -4 -8 9 -8
15 -2 15 6 0 14 -5 17 -11z m30 1 c3 -5 1 -10 -4 -10 -6 0 -11 5 -11 10 0 6 2
10 4 10 3 0 8 -4 11 -10z m80 -31 c-4 -12 -2 -19 7 -19 10 0 10 -2 1 -8 -10
-6 -9 -13 2 -30 19 -25 49 -19 40 9 -8 25 12 60 30 53 10 -4 12 -11 6 -23 -7
-13 -5 -20 10 -29 24 -15 25 -30 2 -28 -12 0 -19 -7 -21 -21 -4 -25 -32 -32
-32 -8 0 17 -16 20 -25 5 -4 -6 -11 -8 -16 -4 -5 3 -7 10 -4 15 4 5 0 12 -7
14 -9 4 -14 22 -14 54 0 37 3 48 13 44 8 -3 11 -13 8 -24z m-732 14 c-7 -2
-19 -2 -25 0 -7 3 -2 5 12 5 14 0 19 -2 13 -5z m77 -59 c0 -2 -9 -4 -20 -4
-11 0 -20 4 -20 9 0 5 9 7 20 4 11 -3 20 -7 20 -9z m76 -15 c10 -17 -13 -36
-27 -22 -12 12 -4 33 11 33 5 0 12 -5 16 -11z m-210 -14 c5 -12 10 -13 20 -4
15 12 44 6 44 -10 0 -9 -42 -36 -67 -44 -5 -1 -7 -4 -6 -7 1 -3 5 -13 8 -22 6
-14 2 -18 -19 -18 -15 0 -36 -11 -51 -27 -23 -26 -31 -23 -26 10 2 13 -30 7
-45 -8 -14 -13 -13 -15 5 -15 11 0 23 -4 26 -10 3 -5 2 -10 -4 -10 -5 0 -11
-12 -13 -27 -3 -25 -7 -28 -36 -26 -36 1 -42 4 -46 25 -2 7 -8 24 -13 38 -8
19 -7 27 3 33 17 10 52 -7 35 -17 -6 -4 -11 -13 -11 -19 1 -17 40 32 40 49 0
8 -4 14 -10 14 -5 0 -10 5 -10 11 0 11 28 9 63 -6 14 -6 17 -2 17 19 0 25 -2
25 -47 21 l-48 -4 45 9 c24 5 48 17 53 25 17 32 84 46 93 20z m637 -36 c-5
-19 -7 -19 -22 -4 -14 14 -14 17 -1 25 20 12 29 4 23 -21z m85 6 c7 -14 12
-32 12 -40 0 -19 -24 -19 -40 0 -7 8 -9 15 -5 15 4 0 3 6 -4 13 -8 10 -7 17 1
25 17 17 23 15 36 -13z m215 -39 c6 -16 -2 -28 -14 -20 -12 7 -11 34 0 34 5 0
11 -6 14 -14z m-156 -21 c0 -8 -9 -15 -21 -15 -20 0 -20 0 0 15 10 8 19 15 20
15 0 0 1 -7 1 -15z m-1057 -3 c0 -4 -9 -13 -20 -20 -22 -13 -27 -3 -8 16 14
14 28 16 28 4z m880 -25 c0 -5 -4 -5 -10 -2 -5 3 -10 14 -10 23 0 15 2 15 10
2 5 -8 10 -19 10 -23z m67 19 c-3 -8 1 -17 9 -20 8 -3 14 -13 14 -23 -1 -17
-1 -17 -11 1 -9 15 -13 16 -21 5 -8 -11 -9 -10 -4 4 3 9 1 17 -5 17 -5 0 -4 7
3 15 17 18 22 19 15 1z m58 -16 c-3 -4 -14 -6 -25 -3 -20 5 -25 15 -14 26 9 9
46 -12 39 -23z m-317 -8 c18 -19 28 -39 28 -58 -1 -22 3 -29 17 -28 26 3 15
-20 -12 -24 -13 -2 -28 4 -36 15 -9 10 -14 13 -15 6 0 -7 -5 -13 -11 -13 -6 0
-9 7 -5 15 3 8 1 15 -4 15 -6 0 -10 4 -10 9 0 4 10 8 22 7 14 -1 24 6 26 16 2
12 -2 15 -18 11 -18 -5 -20 -1 -18 26 1 17 4 31 5 31 2 0 16 -13 31 -28z m432
-14 c0 -5 -9 -4 -20 2 -11 6 -20 12 -20 14 0 2 9 2 20 -1 11 -3 20 -9 20 -15z
m-873 6 c-3 -3 -12 -4 -19 -1 -8 3 -5 6 6 6 11 1 17 -2 13 -5z m-319 -10 c13
-4 22 -14 22 -26 0 -14 -5 -18 -16 -14 -9 3 -22 6 -29 6 -8 0 -13 9 -12 20 1
22 2 22 35 14z m695 -14 c-5 -19 -23 -29 -23 -12 0 7 20 32 26 32 1 0 0 -9 -3
-20z m457 -39 c14 -27 3 -56 -16 -40 -15 12 -19 41 -7 52 9 10 11 9 23 -12z
m71 -41 c-9 -7 -8 -60 1 -60 4 0 8 -9 8 -20 0 -14 -5 -18 -17 -13 -10 4 -21
11 -26 17 -5 7 -12 5 -21 -6 -18 -25 -27 -23 -58 12 l-26 29 37 -1 c20 0 42
-5 49 -11 6 -5 12 -7 12 -3 0 13 2 22 11 37 6 12 4 21 -6 29 -18 15 -19 37 -2
43 13 4 48 -44 38 -53z m-937 41 c3 -5 -1 -14 -9 -21 -13 -10 -15 -9 -15 9 0
21 14 28 24 12z m176 5 c0 -3 -4 -8 -10 -11 -5 -3 -10 -1 -10 4 0 6 5 11 10
11 6 0 10 -2 10 -4z m248 -16 c1 -8 -7 -21 -19 -28 -12 -8 -18 -9 -15 -3 4 6
-3 20 -14 31 l-21 21 33 -3 c19 -2 34 -9 36 -18z m-298 -19 c0 -5 -7 -14 -15
-21 -12 -10 -15 -10 -15 2 0 8 3 18 7 21 9 10 23 9 23 -2z m55 1 c6 -4 11 -18
11 -32 1 -14 2 -35 3 -47 1 -15 8 -23 19 -24 14 0 14 -2 -3 -8 -25 -11 -98 -3
-106 11 -4 6 -19 7 -38 3 -25 -5 -31 -3 -31 10 0 14 6 16 30 12 41 -9 64 1 49
19 -13 16 4 44 27 44 8 0 14 5 14 10 0 12 11 13 25 2z m69 -1 c6 -10 -22 -37
-29 -29 -8 7 5 38 15 38 5 0 11 -4 14 -9z m761 -11 c-3 -5 -10 -10 -16 -10 -5
0 -9 5 -9 10 0 6 7 10 16 10 8 0 12 -4 9 -10z m-1000 -20 c-3 -5 -15 -10 -26
-10 -11 0 -17 5 -14 10 3 6 15 10 26 10 11 0 17 -4 14 -10z m975 -25 c11 -13
10 -14 -4 -9 -9 3 -16 10 -16 15 0 13 6 11 20 -6z m-282 -96 c-9 -6 -6 -10 7
-14 11 -4 30 -12 42 -17 12 -6 29 -8 37 -5 8 3 18 2 22 -4 3 -6 13 -8 21 -5 9
4 13 1 10 -6 -6 -19 -57 -16 -95 4 -46 25 -92 20 -103 -10 -11 -27 -33 -19
-24 9 5 16 1 19 -22 20 -44 1 -73 5 -78 11 -3 3 20 4 50 3 49 -2 58 1 75 23
11 13 20 31 20 40 0 8 8 21 18 28 15 11 18 8 24 -29 5 -28 4 -43 -4 -48z m242
15 c0 -8 -19 -13 -24 -6 -3 5 1 9 9 9 8 0 15 -2 15 -3z m-753 -66 c-3 -8 -6
-5 -6 6 -1 11 2 17 5 13 3 -3 4 -12 1 -19z m399 -16 c-18 -16 -18 -16 -6 6 6
13 14 21 18 18 3 -4 -2 -14 -12 -24z m350 -9 c3 -21 -15 -45 -27 -37 -5 3 -9
-4 -9 -15 0 -13 -7 -21 -16 -21 -11 0 -14 5 -9 18 3 9 9 29 12 44 3 15 13 29
22 31 20 4 24 1 27 -20z m60 -41 c-4 -3 -11 0 -16 8 -15 24 -11 33 6 15 9 -9
13 -19 10 -23z m-827 19 c17 -11 5 -31 -19 -31 -10 0 -26 -10 -34 -22 l-16
-22 0 21 c0 12 10 31 22 43 24 23 27 23 47 11z m161 0 c0 -6 -4 -13 -10 -16
-16 -10 -12 -35 5 -35 9 0 26 11 39 25 28 30 41 33 26 5 -8 -16 -7 -23 10 -37
29 -25 25 -33 -11 -23 -24 7 -34 5 -50 -11 -10 -10 -19 -24 -19 -31 0 -6 -10
-2 -23 10 -13 12 -30 22 -38 22 -8 1 -2 8 14 16 36 19 34 26 -5 22 -29 -3 -33
0 -36 22 l-2 25 14 -25 14 -25 29 32 c28 33 43 41 43 24z m20 -21 c0 -5 -4
-10 -10 -10 -5 0 -10 5 -10 10 0 6 5 10 10 10 6 0 10 -4 10 -10z m630 -25 c0
-8 -7 -15 -15 -15 -8 0 -15 5 -15 11 0 5 5 7 10 4 6 -3 10 -1 10 4 0 6 2 11 5
11 3 0 5 -7 5 -15z m-750 -15 c7 -14 7 -20 0 -20 -5 0 -10 5 -10 12 0 9 -3 9
-12 0 -10 -10 -10 -15 2 -22 11 -7 7 -10 -16 -10 -44 0 -49 10 -17 37 35 28
40 28 53 3z m686 -31 c14 -11 35 -8 47 6 5 6 6 4 3 -5 -3 -8 -9 -23 -12 -32
-7 -20 -24 -24 -24 -7 0 6 -15 9 -37 7 -36 -3 -38 -2 -39 29 -1 30 0 31 25 22
14 -6 31 -15 37 -20z m-812 -14 c3 -8 2 -15 -2 -15 -11 0 2 -111 16 -137 7
-13 18 -23 25 -24 7 -1 1 -4 -13 -8 -16 -4 -29 -18 -36 -39 -5 -18 -14 -29
-18 -25 -4 5 -11 8 -14 8 -24 2 -52 19 -52 31 0 8 -4 14 -9 14 -5 0 -11 10
-13 23 -2 16 -9 21 -25 19 -17 -2 -23 2 -23 16 0 26 21 43 48 37 12 -2 22 0
22 6 0 5 -7 9 -15 9 -19 0 -19 5 2 41 10 16 24 29 33 29 8 0 24 7 34 15 25 19
32 19 40 0z m682 -68 c-1 -23 1 -47 6 -53 5 -7 0 -18 -12 -29 -12 -11 -20 -14
-20 -6 0 7 -4 10 -9 7 -5 -3 -7 -15 -4 -26 4 -14 0 -20 -11 -20 -10 0 -13 6
-9 18 5 15 4 14 -9 -2 -14 -18 -15 -17 -21 21 -6 35 -11 41 -37 46 -16 4 -30
11 -30 17 0 6 14 4 36 -5 46 -19 64 -19 64 0 0 9 7 18 15 21 12 5 14 15 9 41
-5 25 -3 38 7 44 19 11 30 -20 25 -74z m-61 53 c3 -5 1 -10 -4 -10 -6 0 -11
-7 -11 -15 0 -18 -17 -20 -23 -2 -10 29 22 52 38 27z m-430 -19 c3 -5 1 -12
-5 -16 -5 -3 -10 1 -10 9 0 18 6 21 15 7z m615 -10 c0 -5 -7 -12 -16 -15 -14
-5 -15 -4 -4 9 14 17 20 19 20 6z m-779 -64 c-8 -8 -11 -7 -11 4 0 20 13 34
18 19 3 -7 -1 -17 -7 -23z m58 -45 c-5 -2 -16 2 -25 9 -11 9 -12 14 -3 20 8 4
18 1 25 -9 7 -10 9 -18 3 -20z m711 22 c0 -8 -5 -12 -10 -9 -6 4 -8 11 -5 16
9 14 15 11 15 -7z m-364 -114 c12 0 26 -5 30 -11 4 -8 -3 -9 -25 -4 -25 5 -31
3 -31 -10 0 -13 -6 -15 -30 -10 -31 7 -39 -2 -19 -22 9 -9 8 -16 -4 -27 -19
-19 -31 -5 -22 24 4 11 2 20 -4 20 -6 0 -11 -4 -11 -9 0 -5 -8 -8 -17 -6 -10
2 -24 4 -30 4 -7 1 -13 6 -13 12 0 5 5 7 10 4 6 -4 23 -4 38 0 24 5 32 16 53
70 l24 64 14 -50 c11 -41 17 -49 37 -49z m145 73 c-8 -15 -10 -15 -11 -2 0 17
10 32 18 25 2 -3 -1 -13 -7 -23z m-251 -23 c0 -5 -4 -10 -10 -10 -5 0 -10 -9
-10 -20 0 -11 -4 -20 -10 -20 -5 0 -8 13 -7 30 1 21 7 30 20 30 9 0 17 -4 17
-10z m453 -38 c-3 -12 -9 -22 -14 -22 -12 0 -11 7 2 32 13 25 20 19 12 -10z
m-23 9 c0 -5 -11 -16 -25 -25 -25 -16 -30 -11 -19 18 6 17 44 23 44 7z m-800
-61 c0 -5 -4 -10 -10 -10 -5 0 -10 5 -10 10 0 6 5 10 10 10 6 0 10 -4 10 -10z
m745 -20 c-3 -5 -11 -10 -16 -10 -6 0 -7 5 -4 10 3 6 11 10 16 10 6 0 7 -4 4
-10z m52 -8 c-10 -10 -14 -23 -10 -28 4 -5 1 -3 -7 4 -13 12 -13 15 4 28 27
19 32 18 13 -4z m-52 -32 c7 -12 -22 -12 -50 0 -17 7 -15 9 12 9 17 1 35 -3
38 -9z m88 -17 c-24 -9 -13 -25 12 -19 14 4 25 2 25 -4 0 -5 -3 -10 -7 -11 -5
0 -17 -2 -28 -4 -20 -4 -45 11 -45 27 0 10 43 28 50 20 3 -2 -1 -7 -7 -9z
m-693 -43 c-6 -4 -10 -18 -8 -31 3 -21 10 -25 59 -32 46 -7 59 -14 68 -33 6
-15 7 -24 1 -24 -6 0 -10 6 -10 14 0 15 -33 32 -37 19 -11 -28 -22 -36 -36
-25 -8 7 -22 10 -31 6 -9 -3 -16 -1 -16 5 0 6 -17 11 -39 11 -46 0 -64 17 -24
22 25 3 28 7 26 35 -1 25 5 38 25 54 25 19 27 19 30 4 2 -10 -1 -21 -8 -25z
m44 -4 c-6 -16 -24 -23 -24 -8 0 10 22 33 27 28 2 -2 1 -11 -3 -20z m398 -38
c-2 -18 -9 -39 -15 -47 -9 -10 -7 -17 8 -27 17 -12 17 -14 2 -14 -9 0 -17 -4
-17 -9 0 -5 -6 -11 -12 -14 -9 -3 -13 8 -13 39 0 32 7 52 25 74 14 16 25 30
26 30 0 0 -1 -15 -4 -32z m-355 6 c-3 -3 -12 -4 -19 -1 -8 3 -5 6 6 6 11 1 17
-2 13 -5z m-177 -14 c0 -5 -4 -10 -10 -10 -5 0 -10 5 -10 10 0 6 5 10 10 10 6
0 10 -4 10 -10z m260 -30 c-20 -13 -43 -13 -35 0 3 6 16 10 28 10 18 0 19 -2
7 -10z m-400 -78 c-7 -3 -16 2 -21 9 -16 25 -9 32 12 13 13 -12 16 -20 9 -22z
m450 23 c0 -8 -4 -15 -10 -15 -5 0 -10 7 -10 15 0 8 5 15 10 15 6 0 10 -7 10
-15z m-396 -8 c16 -12 16 -13 -3 -13 -11 0 -23 6 -25 13 -3 7 -2 13 2 13 5 0
16 -6 26 -13z m-144 -17 c8 -5 12 -12 8 -15 -10 -10 -49 5 -43 16 8 11 16 11
35 -1z m314 -39 c-6 -6 -34 20 -34 32 0 6 8 2 19 -9 10 -10 17 -21 15 -23z
m103 28 c-18 -11 -23 -39 -7 -39 6 0 10 8 10 17 0 9 3 13 7 10 3 -4 12 1 19
11 12 16 13 16 14 -3 0 -28 -11 -40 -40 -43 -13 -1 -27 -8 -32 -14 -12 -21
-21 -1 -13 29 5 15 8 30 7 33 0 3 11 6 26 7 22 1 23 -1 9 -8z m-342 -9 c3 -5
1 -10 -4 -10 -6 0 -11 5 -11 10 0 6 2 10 4 10 3 0 8 -4 11 -10z m130 -40 c4 6
14 10 23 9 12 0 10 -3 -7 -10 -14 -5 -21 -15 -18 -23 7 -17 -15 -15 -37 3 -24
20 -19 32 9 21 15 -6 26 -6 30 0z"/>
<path d="M1366 2145 c-11 -8 -15 -15 -10 -15 6 0 19 7 30 15 10 8 15 14 9 14
-5 0 -19 -6 -29 -14z"/>
<path d="M1137 1597 c-11 -29 -9 -43 4 -30 6 6 9 19 7 29 -3 18 -4 18 -11 1z"/>
<path d="M1160 990 c-8 -5 -12 -11 -9 -14 2 -3 11 -1 19 4 8 5 12 11 9 14 -2
3 -11 1 -19 -4z"/>
<path d="M1175 880 c3 -5 10 -10 16 -10 5 0 9 5 9 10 0 6 -7 10 -16 10 -8 0
-12 -4 -9 -10z"/>
<path d="M1860 4174 c0 -6 -8 -19 -18 -30 -10 -10 -23 -37 -30 -59 -8 -22 -16
-46 -18 -52 -3 -7 -1 -13 4 -13 11 0 76 150 68 158 -3 3 -6 1 -6 -4z"/>
<path d="M698 4068 c12 -12 24 -19 27 -16 8 7 -23 38 -38 38 -6 0 -2 -10 11
-22z"/>
<path d="M2575 3990 c4 -6 11 -8 16 -5 14 9 11 15 -7 15 -8 0 -12 -5 -9 -10z"/>
<path d="M2298 3854 c-49 -31 -57 -47 -15 -29 19 8 37 12 40 9 3 -3 8 4 12 16
10 30 5 31 -37 4z"/>
<path d="M2330 3818 c-33 -50 -35 -54 -17 -39 25 20 20 0 -7 -30 -28 -32 -66
-55 -66 -39 0 5 -4 10 -10 10 -5 0 -10 -8 -10 -19 0 -23 35 -34 51 -15 6 8 8
14 4 14 -4 0 4 9 19 21 26 21 47 54 60 97 9 28 -5 28 -24 0z"/>
<path d="M2215 3798 c-32 -17 -55 -40 -49 -49 5 -8 67 29 73 44 5 14 -3 16
-24 5z"/>
<path d="M950 3757 c0 -11 29 -67 35 -67 3 0 5 6 5 14 0 14 -39 67 -40 53z"/>
<path d="M1240 3710 c0 -6 11 -8 28 -4 39 10 40 14 4 14 -18 0 -32 -5 -32 -10z"/>
<path d="M2112 3677 c-26 -28 -32 -78 -7 -57 13 11 14 10 8 -5 -6 -17 -5 -17
20 1 24 18 24 19 6 28 -16 8 -17 11 -4 20 9 7 11 16 7 24 -6 9 -14 6 -30 -11z"/>
<path d="M2186 3684 c-4 -9 -4 -19 -1 -22 2 -3 7 3 11 12 4 9 4 19 1 22 -2 3
-7 -3 -11 -12z"/>
<path d="M520 3613 c0 -2 12 -9 28 -16 15 -7 61 -35 102 -62 41 -28 80 -52 85
-55 6 -3 42 -25 80 -50 39 -25 73 -44 78 -42 4 1 7 -5 7 -14 0 -8 3 -13 8 -10
11 7 45 -21 38 -32 -3 -5 1 -15 9 -22 8 -7 15 -10 15 -6 0 3 9 -2 20 -11 12
-10 15 -20 9 -23 -6 -4 -3 -12 7 -21 15 -12 17 -12 9 0 -6 10 -4 12 4 7 7 -5
10 -11 7 -14 -9 -8 15 -33 25 -26 5 3 9 -2 9 -11 0 -8 8 -18 18 -22 21 -7 102
-93 102 -109 0 -6 7 -17 15 -24 12 -10 15 -9 15 7 0 10 -7 28 -15 40 -9 12
-27 51 -40 87 -34 91 -104 196 -151 227 -99 65 -196 120 -257 144 -61 25 -227
67 -227 58z"/>
<path d="M1755 3580 c3 -5 8 -10 11 -10 2 0 4 5 4 10 0 6 -5 10 -11 10 -5 0
-7 -4 -4 -10z"/>
<path d="M1971 3272 c-17 -31 -13 -40 5 -14 9 13 14 26 11 29 -3 2 -10 -4 -16
-15z"/>
<path d="M2406 3246 c3 -9 11 -16 16 -16 13 0 5 23 -10 28 -7 2 -10 -2 -6 -12z"/>
<path d="M1085 3160 c3 -5 8 -10 11 -10 2 0 4 5 4 10 0 6 -5 10 -11 10 -5 0
-7 -4 -4 -10z"/>
<path d="M2300 3021 c0 -9 24 -21 42 -21 6 0 6 6 -2 15 -14 16 -40 20 -40 6z"/>
<path d="M805 2920 c-4 -14 -20 -20 -63 -26 -84 -10 -99 -23 -26 -24 79 0 124
-9 124 -25 0 -16 18 -30 49 -40 24 -7 24 -6 18 39 -6 44 -5 46 21 52 15 3 32
7 37 9 19 5 -40 22 -97 28 -50 5 -58 3 -63 -13z"/>
<path d="M2243 2833 c9 -2 23 -2 30 0 6 3 -1 5 -18 5 -16 0 -22 -2 -12 -5z"/>
<path d="M2460 2805 c12 -13 27 -22 33 -18 6 4 1 14 -12 25 -34 26 -48 22 -21
-7z"/>
<path d="M630 2813 c0 -12 41 -76 45 -71 9 9 -19 78 -32 78 -7 0 -13 -3 -13
-7z"/>
<path d="M2268 2793 c6 -2 18 -2 25 0 6 3 1 5 -13 5 -14 0 -19 -2 -12 -5z"/>
<path d="M2128 2773 c7 -3 16 -2 19 1 4 3 -2 6 -13 5 -11 0 -14 -3 -6 -6z"/>
<path d="M2038 2723 c7 -3 16 -2 19 1 4 3 -2 6 -13 5 -11 0 -14 -3 -6 -6z"/>
<path d="M918 2703 c7 -3 16 -2 19 1 4 3 -2 6 -13 5 -11 0 -14 -3 -6 -6z"/>
<path d="M2105 2697 c-11 -7 -24 -17 -30 -24 -5 -6 -19 -13 -30 -15 -11 -2 13
-7 54 -11 41 -4 101 -18 133 -31 l59 -24 -17 26 c-23 35 -52 60 -91 78 -38 17
-51 17 -78 1z m105 -29 c0 -6 -6 -5 -15 2 -8 7 -15 14 -15 16 0 2 7 1 15 -2 8
-4 15 -11 15 -16z"/>
<path d="M2088 2573 c7 -3 16 -2 19 1 4 3 -2 6 -13 5 -11 0 -14 -3 -6 -6z"/>
<path d="M1890 2235 c-7 -9 -11 -18 -8 -20 3 -3 11 1 18 10 7 9 11 18 8 20 -3
3 -11 -1 -18 -10z"/>
<path d="M1931 2214 c1 -16 5 -40 9 -54 6 -17 7 -9 3 25 -6 56 -14 74 -12 29z"/>
<path d="M1117 2140 c-13 -14 -35 -34 -49 -45 -24 -19 -50 -93 -28 -80 6 3 10
17 10 31 0 19 8 28 38 40 31 13 92 65 92 79 0 13 -43 -4 -63 -25z"/>
<path d="M953 2133 c-18 -6 -16 -23 1 -23 17 0 30 16 19 23 -5 2 -14 2 -20 0z"/>
<path d="M865 2097 c-14 -11 -16 -20 -10 -43 5 -16 9 -38 10 -49 2 -30 21 -60
29 -46 4 6 2 11 -4 11 -6 0 -9 4 -6 9 3 4 1 23 -4 41 -5 18 -6 38 -2 44 7 12
14 46 9 46 -2 0 -11 -6 -22 -13z"/>
<path d="M925 2090 c-3 -5 -1 -19 5 -30 8 -14 8 -26 0 -40 -15 -27 9 -27 33 0
10 12 23 17 34 14 16 -5 16 -4 -1 10 -12 9 -28 13 -39 10 -17 -5 -19 -3 -13
20 6 25 -6 36 -19 16z"/>
<path d="M1136 2048 c5 -7 2 -9 -9 -5 -11 4 -14 2 -11 -8 3 -7 13 -12 22 -10
9 2 21 4 26 4 11 1 -14 31 -26 31 -5 0 -6 -5 -2 -12z"/>
<path d="M790 2001 c0 -5 6 -14 14 -20 12 -10 13 -8 9 8 -5 21 -23 30 -23 12z"/>
<path d="M933 1926 c4 -10 7 -22 7 -27 0 -5 5 -9 11 -9 15 0 7 43 -10 48 -10
3 -12 0 -8 -12z"/>
<path d="M836 1922 c-3 -6 1 -13 10 -16 23 -9 28 -2 10 13 -8 7 -17 8 -20 3z"/>
<path d="M900 1890 c0 -12 40 -33 48 -25 4 4 -2 13 -12 21 -23 16 -36 18 -36
4z"/>
<path d="M1045 1820 c-31 -34 -11 -45 24 -14 29 26 30 30 13 31 -11 1 -28 -7
-37 -17z"/>
<path d="M2107 1773 c-4 -3 -7 -11 -7 -17 0 -6 5 -5 12 2 6 6 9 14 7 17 -3 3
-9 2 -12 -2z"/>
<path d="M854 1712 c-17 -15 -36 -40 -43 -56 -9 -23 -16 -27 -36 -22 -14 4
-25 3 -25 -1 0 -12 20 -39 20 -28 0 6 4 4 9 -4 14 -21 37 1 45 43 4 22 15 37
31 44 23 11 54 52 38 52 -4 0 -22 -13 -39 -28z"/>
<path d="M767 1713 c-9 -17 0 -58 14 -58 9 0 13 9 11 25 -4 28 -17 46 -25 33z"/>
<path d="M705 1680 c3 -5 8 -10 11 -10 2 0 4 5 4 10 0 6 -5 10 -11 10 -5 0 -7
-4 -4 -10z"/>
<path d="M710 1628 c0 -7 5 -20 10 -28 8 -12 10 -9 10 13 0 15 -4 27 -10 27
-5 0 -10 -6 -10 -12z"/>
<path d="M874 1624 c3 -9 6 -20 6 -25 0 -5 4 -9 9 -9 4 0 6 11 3 25 -2 14 -9
25 -14 25 -6 0 -7 -7 -4 -16z"/>
<path d="M741 1560 c0 -8 4 -22 9 -30 12 -18 12 -2 0 25 -6 13 -9 15 -9 5z"/>
<path d="M745 1470 c-3 -5 -1 -10 4 -10 6 0 11 5 11 10 0 6 -2 10 -4 10 -3 0
-8 -4 -11 -10z"/>
<path d="M709 1456 c-10 -11 2 -55 19 -68 13 -11 14 -11 7 1 -4 8 -11 27 -14
43 -3 16 -9 27 -12 24z"/>
<path d="M806 1355 c4 -8 8 -15 10 -15 2 0 4 7 4 15 0 8 -4 15 -10 15 -5 0 -7
-7 -4 -15z"/>
<path d="M712 1340 c0 -14 2 -19 5 -12 2 6 2 18 0 25 -3 6 -5 1 -5 -13z"/>
<path d="M762 1196 c1 -54 12 -65 38 -41 19 17 19 16 15 -20 -6 -44 -12 -55
-30 -55 -8 0 -11 7 -8 18 3 12 -1 19 -9 19 -10 0 -13 -9 -10 -27 2 -15 -1 -31
-7 -34 -6 -4 -11 -18 -11 -32 0 -15 4 -23 10 -19 6 4 8 10 5 15 -3 5 -1 11 5
15 5 3 10 -1 10 -9 0 -21 39 -16 46 6 3 10 2 22 -1 28 -9 14 4 52 16 45 5 -4
13 5 18 18 5 13 22 34 37 46 20 16 22 21 10 21 -10 0 -15 4 -11 9 9 16 -9 20
-23 5 -8 -9 -9 -14 -2 -14 7 0 7 -7 -1 -22 l-11 -21 -17 26 c-8 15 -21 27 -28
27 -6 0 -18 9 -27 21 -13 20 -14 18 -14 -25z"/>
<path d="M945 1190 c-3 -5 -1 -10 4 -10 6 0 11 5 11 10 0 6 -2 10 -4 10 -3 0
-8 -4 -11 -10z"/>
<path d="M700 1170 c0 -5 9 -14 21 -20 19 -11 20 -10 9 9 -11 22 -30 29 -30
11z"/>
<path d="M930 1141 c-6 -12 -7 -21 -1 -21 10 0 24 30 17 37 -2 3 -9 -5 -16
-16z"/>
<path d="M700 1102 c0 -10 7 -27 16 -38 15 -19 16 -19 8 1 -3 11 -6 28 -6 38
0 9 -3 17 -9 17 -5 0 -9 -8 -9 -18z"/>
<path d="M2150 1100 c0 -19 3 -21 12 -12 9 9 9 15 0 24 -9 9 -12 7 -12 -12z"/>
<path d="M910 1091 c-6 -12 -17 -21 -25 -21 -18 0 -18 -2 -4 -34 14 -30 36
-40 53 -24 10 10 9 16 -8 30 -18 15 -19 19 -8 38 7 12 11 24 9 27 -3 3 -10 -5
-17 -16z"/>
<path d="M1006 1069 c3 -6 -2 -16 -12 -23 -16 -12 -16 -15 -2 -35 18 -26 33
-13 40 35 3 24 0 30 -14 31 -10 1 -16 -3 -12 -8z"/>
<path d="M845 1021 c-7 -12 12 -24 25 -16 11 7 4 25 -10 25 -5 0 -11 -4 -15
-9z"/>
<path d="M910 976 c0 -8 4 -17 9 -20 5 -4 7 3 4 14 -6 23 -13 26 -13 6z"/>
<path d="M1010 974 c-10 -12 -8 -14 14 -14 28 0 35 14 12 23 -8 3 -20 -1 -26
-9z"/>
<path d="M880 955 c0 -12 -3 -16 -8 -9 -12 19 -40 13 -34 -8 4 -16 0 -18 -32
-15 -20 2 -36 1 -36 -3 0 -11 30 -21 41 -14 5 3 9 -9 9 -25 0 -19 7 -35 19
-43 11 -6 17 -19 14 -27 -4 -14 -4 -14 6 -1 9 13 12 12 26 -5 9 -11 14 -13 11
-5 -3 8 -9 23 -12 33 -4 9 -13 17 -21 17 -8 0 -12 4 -9 9 3 5 15 7 26 4 14 -4
23 2 31 20 10 22 8 31 -9 59 -17 26 -22 29 -22 13z"/>
<path d="M768 943 c7 -3 16 -2 19 1 4 3 -2 6 -13 5 -11 0 -14 -3 -6 -6z"/>
<path d="M786 835 c4 -17 2 -25 -7 -25 -7 0 -10 -2 -8 -4 2 -2 7 -4 11 -3 4 1
15 -8 23 -20 18 -26 23 -27 45 -13 13 9 13 11 0 19 -10 7 -17 6 -22 -2 -5 -8
-8 -6 -8 6 0 9 -4 17 -10 17 -5 0 -10 11 -10 25 0 14 -5 25 -10 25 -6 0 -8
-11 -4 -25z"/>
<path d="M924 816 c-3 -8 -1 -23 5 -33 9 -15 10 -13 11 15 0 34 -7 42 -16 18z"/>
<path d="M773 765 c0 -8 6 -15 13 -15 8 0 11 6 8 15 -4 8 -9 15 -13 15 -4 0
-8 -7 -8 -15z"/>
<path d="M1052 620 c5 -17 15 -33 21 -37 7 -4 8 0 3 13 -5 10 -11 27 -13 37
-3 9 -9 17 -14 17 -4 0 -3 -14 3 -30z"/>
<path d="M965 618 c-6 -13 -14 -23 -20 -23 -5 0 -16 -4 -22 -8 -9 -5 -17 1
-25 18 -12 27 -38 30 -46 6 -3 -9 0 -12 9 -9 8 2 27 -10 42 -29 16 -18 23 -33
16 -33 -8 0 -7 -6 4 -18 21 -23 68 -18 94 10 17 19 17 20 0 30 -12 6 -16 16
-12 29 6 18 -9 49 -24 49 -3 0 -11 -10 -16 -22z m35 -71 c0 -8 -3 -16 -6 -20
-8 -8 -34 3 -34 15 0 5 5 6 10 3 6 -3 10 -1 10 4 0 6 5 11 10 11 6 0 10 -6 10
-13z"/>
<path d="M1018 602 c-3 -11 0 -19 7 -19 7 0 10 8 7 19 -2 10 -6 18 -7 18 -1 0
-5 -8 -7 -18z"/>
<path d="M1208 503 c7 -3 16 -2 19 1 4 3 -2 6 -13 5 -11 0 -14 -3 -6 -6z"/>
</g>
</svg>
